<?xml version="1.0" encoding="UTF-8"?>
<svg id="Layer_1" xmlns="http://www.w3.org/2000/svg" viewBox="0 0 360 360">
  <defs>
    <style>
      .cls-1 {
        fill: #63c;
      }

      .cls-2 {
        fill: #fff;
      }

      .cls-3 {
        fill: #0f0f0f;
      }
    </style>
  </defs>
  <g id="logo">
    <path class="cls-1" d="M36,288h.31l-.09.29c-.07-.1-.15-.19-.22-.29Z"/>
    <path class="cls-1" d="M97.28,102.65l-61.29,185.34C13.39,257.91,0,220.52,0,180c0-22.21,4.02-43.48,11.38-63.13.06-.15.11-.3.17-.45l85.73-13.77Z"/>
    <path class="cls-1" d="M287.51,35.64L32.69,76.56C65.25,30.25,119.09,0,180,0c40.3,0,77.51,13.25,107.51,35.64Z"/>
    <path class="cls-1" d="M107.94,324h180.07c-30.09,22.6-67.49,36-108.01,36-16.15,0-31.79-2.13-46.68-6.12-11.84-3.17-23.2-7.51-33.94-12.91-12.77-6.4-24.66-14.28-35.46-23.41l9.59-29.56h.39l63.43-191.79,96.24-15.45-107.04,207.24-.71,1.38-17.88,34.62Z"/>
    <path class="cls-1" d="M360,180c0,40.52-13.39,77.92-35.99,108h-156.96l110.7-214.34,42.25-6.79c.12.14.23.29.35.43,24.81,30.85,39.65,70.04,39.65,112.7Z"/>
    <g>
      <path class="cls-2" d="M110.4,322.5l125.86-243.69-100.07,16.07-63.38,191.63h-.4l-9.23,28.46c-9.32-8.07-17.82-17.13-25.31-26.96l.47-1.5h-.29l61.42-185.72-85.59,13.75c1.42-3.6,2.99-7.22,4.69-10.8.33-.69.65-1.38,1-2.07,1.26-2.57,2.54-5.04,3.82-7.38.75-1.35,1.52-2.7,2.3-4.04,2.43-4.17,5.07-8.3,7.86-12.29l253.58-40.72c.76.57,1.49,1.12,2.21,1.69,1.41,1.09,2.86,2.25,4.3,3.44,4.93,4.09,9.71,8.49,14.19,13.09.65.66,1.28,1.32,1.91,1.99,1.93,2.04,3.79,4.11,5.54,6.15.61.7,1.2,1.4,1.79,2.1.04.04.07.08.1.12l-40.42,6.5-112.18,217.2h156.39c-9.66,12.42-20.91,23.51-33.47,33H110.4Z"/>
      <path class="cls-3" d="M286.74,38.8c.56.42,1.13.86,1.69,1.3,1.41,1.09,2.84,2.23,4.25,3.4,4.9,4.05,9.63,8.42,14.09,12.99.63.64,1.26,1.3,1.89,1.97,1.91,2.02,3.76,4.07,5.51,6.11.05.06.1.12.15.17l-37.05,5.95-1.49.24-.69,1.35-110.7,214.34-2.26,4.38h155.75c-9.04,11.21-19.4,21.28-30.87,30H112.87l15.62-30.25.71-1.38,107.04-207.24,2.73-5.28-5.87.94-96.24,15.45-1.8.29-.57,1.73-62.75,189.73h-.4l-.67,2.07-8.19,25.25c-8.38-7.45-16.07-15.71-22.92-24.63l.84-2.7h-.24l59.99-181.41,1.55-4.69-4.87.78-80.53,12.93c1.14-2.76,2.36-5.53,3.66-8.27.32-.68.64-1.35.99-2.05,1.25-2.54,2.52-5,3.78-7.29.82-1.47,1.57-2.79,2.29-4.03,2.3-3.95,4.79-7.86,7.42-11.66l252.32-40.52M287.51,35.64L32.69,76.56c-.11.16-.23.32-.34.48-2.82,4.03-5.47,8.17-7.95,12.43-.79,1.35-1.56,2.71-2.32,4.08-1.34,2.44-2.62,4.92-3.85,7.43-.35.7-.68,1.4-1.01,2.1-2.06,4.35-3.96,8.8-5.67,13.34l85.73-13.77-61.29,185.34s.01,0,.01,0h.31l-.09.29c8.12,10.76,17.41,20.58,27.7,29.27l9.59-29.56h.39l63.43-191.79,96.24-15.45-107.04,207.24-.71,1.38-17.88,34.62h180.07c13.63-10.24,25.76-22.37,36-36h-156.96l110.7-214.34,42.25-6.79c-.04-.05-.09-.11-.13-.16-.54-.67-1.09-1.33-1.64-1.99-.59-.71-1.19-1.42-1.8-2.12-1.81-2.11-3.68-4.18-5.59-6.2-.64-.68-1.28-1.35-1.93-2.01-4.53-4.65-9.31-9.06-14.31-13.2-1.42-1.17-2.87-2.33-4.33-3.46-.74-.58-1.49-1.15-2.24-1.71-.17-.13-.34-.26-.52-.38h0Z"/>
    </g>
  </g>
</svg>